<svg width="203" height="191" viewBox="0 0 203 191" fill="none" xmlns="http://www.w3.org/2000/svg">
<mask id="mask0_234_14" style="mask-type:alpha" maskUnits="userSpaceOnUse" x="0" y="0" width="203" height="191">
<g clip-path="url(#clip0_234_14)">
<path d="M176.353 7.13245H176.349C165.963 7.13245 157.543 15.5391 157.543 25.9092V115.468C157.543 125.838 165.963 134.245 176.349 134.245H176.353C186.739 134.245 195.159 125.838 195.159 115.468V25.9092C195.159 15.5391 186.739 7.13245 176.353 7.13245Z" fill="black"/>
<path d="M13.0867 165.875H7.55469V159.076H13.0867V157.376C13.0867 153.857 14.1415 151.096 16.251 149.092C18.3605 147.089 21.1161 146.087 24.5178 146.087C26.2231 146.054 27.9236 146.279 29.5616 146.754V154.524C28.8986 154.237 28.2181 153.993 27.5243 153.791C26.8602 153.62 26.1763 153.539 25.4906 153.549C24.3063 153.494 23.148 153.907 22.2676 154.7C21.8541 155.112 21.5321 155.606 21.3228 156.15C21.1134 156.695 21.0213 157.277 21.0525 157.859V159.073H28.6513V165.872H21.0525V190.029H13.0867V165.875Z" fill="black"/>
<path d="M39.2419 188.878C36.8035 187.494 34.7952 185.465 33.4382 183.014C32.0166 180.441 31.2928 177.543 31.3385 174.606C31.3184 171.734 32.0295 168.903 33.4052 166.381C34.7422 163.9 36.7145 161.817 39.1208 160.344C41.5687 158.842 44.3931 158.063 47.2664 158.098C50.4675 158.098 53.2231 158.786 55.5333 160.161C57.8008 161.49 59.6294 163.452 60.7936 165.806C62.0064 168.279 62.6201 171.002 62.585 173.755C62.5883 174.649 62.5282 175.542 62.4052 176.427H39.1208C39.5246 178.898 40.5035 180.769 42.0575 182.042C43.6448 183.327 45.6385 184.005 47.6813 183.956C49.3314 184 50.9619 183.59 52.3947 182.772C53.696 181.997 54.7736 180.898 55.5223 179.583L61.9684 182.739C58.8065 188.244 54.0038 190.996 47.5601 190.996C44.6485 191.037 41.7781 190.306 39.2419 188.878ZM54.9276 170.79C54.8227 169.754 54.4564 168.762 53.863 167.906C53.1941 166.92 52.2977 166.109 51.2493 165.542C50.0473 164.891 48.6957 164.566 47.3289 164.6C45.5509 164.556 43.8158 165.148 42.4355 166.267C41.0345 167.456 40.0134 169.028 39.4988 170.79H54.9276Z" fill="black"/>
<path d="M71.6594 188.695C69.4217 187.272 67.7051 185.165 66.7661 182.687L73.8766 179.59C74.443 180.945 75.4083 182.095 76.6445 182.889C77.8962 183.652 79.3408 184.042 80.8073 184.01C82.0603 184.052 83.3069 183.814 84.4561 183.314C84.9055 183.131 85.2876 182.815 85.5503 182.408C85.8131 182 85.9437 181.522 85.9245 181.038C85.9418 180.571 85.8252 180.109 85.5885 179.706C85.3518 179.302 85.0048 178.975 84.5883 178.762C83.3202 178.124 81.97 177.664 80.576 177.395L76.9271 176.607C74.581 176.091 72.4183 174.951 70.6683 173.308C69.856 172.542 69.2142 171.614 68.7848 170.584C68.3554 169.554 68.1478 168.445 68.1757 167.33C68.1595 165.598 68.7256 163.91 69.7836 162.536C70.9194 161.063 72.4324 159.923 74.163 159.237C76.1023 158.452 78.1788 158.061 80.2713 158.087C86.6733 158.087 90.9487 160.332 93.0974 164.823L86.2916 167.799C85.0679 165.6 83.1224 164.501 80.4549 164.501C79.0746 164.501 77.9807 164.754 77.1731 165.259C76.3655 165.765 75.9592 166.403 75.9544 167.173C75.9544 168.639 77.3322 169.731 80.0878 170.449L84.6507 171.549C87.7269 172.319 90.0518 173.493 91.6254 175.071C92.3902 175.834 92.9919 176.743 93.3939 177.745C93.7959 178.747 93.9897 179.82 93.9637 180.899C93.9932 182.793 93.3829 184.642 92.231 186.147C90.9932 187.728 89.358 188.954 87.4919 189.699C85.3815 190.569 83.1162 191.003 80.833 190.974C77.0471 190.994 73.9892 190.234 71.6594 188.695Z" fill="black"/>
<path d="M108.651 190.289C107.463 189.886 106.382 189.22 105.49 188.339C103.584 186.484 102.631 183.844 102.631 180.419V165.875H97.2197V159.076H102.631V150.335H110.596V159.076H118.195V165.875H110.596V179.044C110.596 180.664 110.94 181.828 111.628 182.537C112.196 183.204 113.169 183.538 114.546 183.538C115.198 183.557 115.848 183.454 116.463 183.233C117.146 182.94 117.807 182.594 118.437 182.2V189.97C116.676 190.663 114.798 191.013 112.905 191.004C111.456 191.019 110.015 190.777 108.651 190.289Z" fill="black"/>
<path d="M123.97 160.352L127.071 155.616C126.135 155.249 125.33 154.611 124.759 153.784C124.149 152.929 123.83 151.901 123.848 150.852C123.838 150.157 123.97 149.468 124.237 148.826C124.503 148.184 124.898 147.604 125.398 147.12C125.882 146.62 126.464 146.225 127.107 145.958C127.75 145.692 128.442 145.559 129.138 145.57C129.83 145.558 130.517 145.689 131.155 145.956C131.793 146.223 132.369 146.62 132.846 147.12C133.338 147.608 133.726 148.19 133.988 148.831C134.249 149.472 134.377 150.159 134.366 150.852C134.376 151.527 134.251 152.197 133.998 152.823C133.685 153.539 133.299 154.221 132.846 154.858L127.556 162.686L123.97 160.352Z" fill="black"/>
<path d="M140.444 182.808L148.194 175.089C152.026 171.263 154.488 168.763 155.58 167.591C156.745 166.408 157.756 165.083 158.59 163.647C159.151 162.537 159.433 161.308 159.412 160.066C159.422 159.39 159.286 158.721 159.013 158.103C158.74 157.485 158.336 156.933 157.83 156.485C156.775 155.508 155.376 155.019 153.634 155.019C151.933 155.019 150.555 155.508 149.501 156.485C148.436 157.473 147.66 158.731 147.254 160.125L140.077 157.152C140.577 155.473 141.416 153.914 142.541 152.571C143.806 151.039 145.394 149.805 147.192 148.957C149.245 147.995 151.491 147.517 153.759 147.56C156.264 147.505 158.746 148.057 160.99 149.169C162.964 150.157 164.626 151.67 165.792 153.542C166.93 155.393 167.521 157.528 167.495 159.699C167.495 164.193 165.307 168.584 160.932 172.872C159.148 174.614 155.844 177.892 151.02 182.706L151.204 183.072H168.042V190.036H140.444V182.808Z" fill="black"/>
<path d="M179.077 188.211C176.385 186.349 174.531 183.638 173.515 180.078L181.052 177.102C181.541 179.086 182.412 180.614 183.665 181.687C184.996 182.783 186.684 183.354 188.408 183.292C190.058 183.324 191.665 182.765 192.938 181.716C193.546 181.242 194.035 180.633 194.367 179.938C194.699 179.243 194.864 178.48 194.851 177.71C194.875 176.903 194.703 176.103 194.348 175.378C193.993 174.653 193.466 174.026 192.813 173.55C191.455 172.521 189.62 172.006 187.307 172.003H183.72V164.783H187.002C188.617 164.833 190.205 164.364 191.532 163.445C192.756 162.556 193.368 161.261 193.368 159.56C193.383 158.917 193.255 158.278 192.992 157.69C192.729 157.102 192.338 156.58 191.848 156.162C190.764 155.247 189.375 154.771 187.957 154.828C186.293 154.828 184.955 155.273 183.944 156.162C182.932 157.051 182.194 158.209 181.815 159.501L174.584 156.525C175.502 154.007 177.139 151.813 179.293 150.214C181.584 148.433 184.491 147.542 188.015 147.542C190.421 147.502 192.805 148.003 194.99 149.008C196.912 149.878 198.562 151.252 199.762 152.985C200.896 154.658 201.489 156.638 201.462 158.658C201.522 160.672 200.983 162.658 199.913 164.365C199 165.832 197.709 167.027 196.176 167.825V168.309C198.162 169.075 199.882 170.4 201.128 172.124C202.383 173.866 203.011 175.972 203.011 178.439C203.039 180.716 202.401 182.951 201.176 184.872C199.911 186.815 198.132 188.37 196.036 189.365C193.656 190.496 191.044 191.056 188.408 191.004C185.082 191.064 181.821 190.088 179.077 188.211Z" fill="black"/>
<path d="M142.687 71.7312V114.775C142.687 120.036 140.594 125.081 136.869 128.801C133.143 132.521 128.09 134.611 122.821 134.611C117.552 134.611 112.498 132.521 108.773 128.801C105.047 125.081 102.954 120.036 102.954 114.775V97.6844C104.454 96.1863 105.571 94.3496 106.21 92.3295C107.972 92.409 109.724 92.0286 111.294 91.2259C112.864 90.4231 114.198 89.2257 115.163 87.7517C117.663 83.8556 117.281 78.1636 114.282 74.6817C115.673 72.9342 116.627 70.8813 117.066 68.6928C117.505 66.5044 117.417 64.243 116.808 62.0954C115.56 57.8182 112.116 54.3289 108.02 53.2C108.846 50.1359 107.539 46.6027 105.916 43.9235C105.091 42.5939 103.995 41.4528 102.699 40.5743C101.403 39.6959 99.9366 39.0999 98.3946 38.8252C95.3074 38.3121 93.3912 38.5906 90.3994 39.5582C88.6153 36.1459 85.1831 34.2914 81.5159 33.8552C79.9199 33.6812 78.3064 33.9376 76.8434 34.5977C75.3804 35.2578 74.1215 36.2974 73.1976 37.6084C72.7914 37.5742 72.3839 37.5522 71.9752 37.5424C70.6941 34.7202 67.148 33.1845 64.1452 33.9138C61.8619 34.4673 59.9384 35.9773 58.4186 37.9016C54.8469 37.5131 51.187 37.7513 47.8795 39.1184C43.9553 40.7384 41.3894 43.7146 39.9871 47.629C39.9871 47.629 35.6591 49.3406 33.3465 54.9886C32.5374 57.072 32.2099 59.3109 32.3884 61.5383H52.5232C52.7093 61.5386 52.8906 61.4795 53.0408 61.3697L63.7341 53.3466C63.8833 53.2346 64.065 53.1741 64.2517 53.1744H77.03C77.1739 52.4369 77.57 51.7722 78.1506 51.2941C78.7312 50.8161 79.4601 50.5544 80.2127 50.5538C80.6386 50.5538 81.0605 50.6376 81.454 50.8005C81.8475 50.9633 82.2049 51.2021 82.506 51.503C82.807 51.8039 83.0457 52.1611 83.2084 52.5542C83.3711 52.9473 83.4545 53.3685 83.454 53.7938C83.454 54.6522 83.1126 55.4753 82.5047 56.0822C81.8968 56.6892 81.0723 57.0302 80.2127 57.0302C79.5462 57.0309 78.8958 56.826 78.3504 56.4435C77.805 56.061 77.3913 55.5196 77.1659 54.8934H64.828C64.6408 54.8939 64.459 54.9557 64.3104 55.0693L53.6171 63.0887C53.4673 63.1996 53.286 63.2599 53.0995 63.261H32.5719C32.7375 64.3569 32.9904 65.4379 33.3281 66.4936H69.7506C69.9535 66.4934 70.1498 66.5648 70.305 66.6953L78.5534 73.6115C78.7079 73.743 78.9047 73.8146 79.1077 73.813H90.381C90.5697 73.1301 90.9773 72.5277 91.5415 72.098C92.1057 71.6684 92.7954 71.4353 93.505 71.4343C93.9309 71.4343 94.3527 71.5182 94.7462 71.6811C95.1397 71.8439 95.4972 72.0826 95.7983 72.3835C96.0993 72.6844 96.338 73.0416 96.5007 73.4347C96.6633 73.8278 96.7468 74.249 96.7464 74.6744C96.7464 75.5327 96.4049 76.3559 95.797 76.9628C95.1891 77.5697 94.3646 77.9107 93.505 77.9107C92.7954 77.9097 92.1057 77.6766 91.5415 77.247C90.9773 76.8174 90.5697 76.215 90.381 75.532H78.4763C78.2734 75.5329 78.0769 75.4614 77.922 75.3304L69.6772 68.4142C69.5208 68.2865 69.325 68.2166 69.1229 68.2163H32.5389C31.5872 69.6824 30.9382 71.3235 30.63 73.0433H51.8881C52.0329 73.0414 52.1759 73.0756 52.3041 73.1428C52.4323 73.21 52.5416 73.3081 52.6223 73.4282L60.1403 84.8526C60.2195 84.9743 60.3285 85.0739 60.4569 85.1418C60.5854 85.2098 60.7291 85.2439 60.8745 85.2411H83.6596C83.8472 84.5575 84.2545 83.9544 84.819 83.5246C85.3834 83.0948 86.0737 82.8621 86.7836 82.8624C87.6436 82.8633 88.468 83.2051 89.0758 83.8127C89.6836 84.4202 90.025 85.2437 90.025 86.1024C90.024 86.9604 89.6822 87.783 89.0745 88.3898C88.4668 88.9965 87.6429 89.3378 86.7836 89.3388C86.0737 89.339 85.3834 89.1063 84.819 88.6765C84.2545 88.2467 83.8472 87.6436 83.6596 86.9601H59.9017C59.7585 86.9643 59.6165 86.9331 59.4883 86.8691C59.3602 86.8051 59.25 86.7105 59.1675 86.5935L51.6532 75.1692C51.5732 75.0482 51.4641 74.9492 51.3358 74.8813C51.2075 74.8134 51.0642 74.7788 50.919 74.7806H30.4318C30.3882 75.6879 30.4423 76.5972 30.5933 77.4929C30.9241 79.3497 31.6531 81.1131 32.7303 82.6624C33.8074 84.2117 35.2072 85.5102 36.8338 86.4689C37.3776 86.7308 37.8681 87.0912 38.2801 87.5318C38.6312 88.0894 38.8636 88.7132 38.9629 89.3644C39.3571 90.9473 40.0783 92.4304 41.0803 93.7187C42.0823 95.0069 43.3429 96.0718 44.7813 96.845C46.3033 97.6378 47.9911 98.0609 49.7076 98.0802C51.176 98.1022 52.6443 97.3985 53.9365 98.1938C55.2286 98.9892 55.9812 100.62 57.3321 101.471C58.8198 102.392 60.4909 102.979 62.229 103.189C65.6062 103.622 69.0238 102.845 72.2542 101.767C75.3378 104.142 79.5226 104.824 83.2962 103.922C85.8554 106.158 87.8503 108.965 89.119 112.114C90.3877 115.264 90.8943 118.668 90.5976 122.051C89.6652 131.723 82.0188 139.757 72.0486 141.278C64.7986 141.667 49.4617 141.458 34.0072 132.482C11.7543 119.584 -0.154038 94.7009 0.00748098 70.7563C0.00748098 68.4582 0.969235 29.3654 34.723 9.50373C59.9347 -5.32926 90.2562 -1.66772 111.279 12.5935C130.632 25.7222 137.934 45.0047 140.507 54.6112C141.241 57.3161 141.579 59.2549 141.718 60.0759C142.366 63.9273 142.69 67.826 142.687 71.7312Z" fill="black"/>
</g>
</mask>
<g mask="url(#mask0_234_14)">
<ellipse cx="107.783" cy="106.111" rx="128.083" ry="127.816" fill="url(#paint0_linear_234_14)"/>
</g>
<defs>
<linearGradient id="paint0_linear_234_14" x1="186.286" y1="-2.73835" x2="6.58816" y2="213.681" gradientUnits="userSpaceOnUse">
<stop stop-color="#293B8F"/>
<stop offset="0.990323"/>
</linearGradient>
<clipPath id="clip0_234_14">
<rect width="203" height="191" fill="white"/>
</clipPath>
</defs>
</svg>
