<svg width="227" height="214" viewBox="0 0 227 214" fill="none" xmlns="http://www.w3.org/2000/svg">
<mask id="mask0_237_141" style="mask-type:alpha" maskUnits="userSpaceOnUse" x="0" y="0" width="227" height="214">
<g clip-path="url(#clip0_237_141)">
<path d="M197.203 7.99121H197.198C185.584 7.99121 176.169 17.4102 176.169 29.029V129.372C176.169 140.991 185.584 150.41 197.198 150.41H197.203C208.817 150.41 218.232 140.991 218.232 129.372V29.029C218.232 17.4102 208.817 7.99121 197.203 7.99121Z" fill="black"/>
<path d="M14.6338 185.85H8.44775V178.232H14.6338V176.327C14.6338 172.384 15.8133 169.291 18.1722 167.046C20.5311 164.801 23.6125 163.678 27.4164 163.678C29.3233 163.642 31.2248 163.894 33.0565 164.426V173.132C32.315 172.811 31.5541 172.536 30.7783 172.31C30.0357 172.119 29.2709 172.028 28.5042 172.039C27.1799 171.977 25.8846 172.441 24.9001 173.329C24.4377 173.79 24.0777 174.344 23.8436 174.954C23.6095 175.564 23.5065 176.216 23.5414 176.869V178.228H32.0385V185.846H23.5414V212.912H14.6338V185.85Z" fill="black"/>
<path d="M43.8811 211.622C41.1545 210.072 38.9087 207.798 37.3913 205.052C35.8016 202.17 34.9922 198.923 35.0433 195.631C35.0208 192.413 35.8161 189.243 37.3543 186.416C38.8495 183.636 41.0549 181.302 43.7457 179.653C46.483 177.969 49.6413 177.096 52.8544 177.136C56.4338 177.136 59.5152 177.906 62.0986 179.448C64.6342 180.936 66.6789 183.135 67.9809 185.772C69.337 188.543 70.0232 191.594 69.984 194.679C69.9877 195.68 69.9205 196.68 69.7829 197.672H43.7457C44.1972 200.44 45.2918 202.537 47.0296 203.964C48.8046 205.403 51.034 206.163 53.3182 206.107C55.1634 206.157 56.9867 205.698 58.5889 204.781C60.044 203.913 61.2491 202.682 62.0863 201.208L69.2945 204.744C65.7588 210.912 60.3882 213.996 53.1828 213.996C49.9269 214.042 46.7172 213.223 43.8811 211.622ZM61.4213 191.356C61.304 190.196 60.8944 189.084 60.2308 188.125C59.4829 187.02 58.4805 186.112 57.3082 185.476C55.9641 184.747 54.4526 184.383 52.9242 184.421C50.9361 184.372 48.9958 185.034 47.4523 186.289C45.8857 187.62 44.7439 189.382 44.1684 191.356H61.4213Z" fill="black"/>
<path d="M80.1315 211.417C77.6293 209.823 75.7097 207.462 74.6597 204.686L82.6108 201.216C83.2442 202.734 84.3236 204.023 85.7059 204.912C87.1056 205.768 88.721 206.204 90.3608 206.169C91.762 206.216 93.1561 205.949 94.4411 205.389C94.9436 205.184 95.3709 204.829 95.6647 204.373C95.9585 203.917 96.1046 203.381 96.0831 202.839C96.1024 202.315 95.972 201.797 95.7074 201.346C95.4427 200.894 95.0547 200.527 94.5889 200.288C93.1709 199.574 91.6611 199.058 90.1022 198.757L86.022 197.874C83.3985 197.296 80.9801 196.019 79.0232 194.178C78.1148 193.32 77.3972 192.28 76.917 191.126C76.4368 189.972 76.2047 188.73 76.2359 187.48C76.2177 185.539 76.8508 183.648 78.0339 182.109C79.304 180.458 80.9959 179.181 82.931 178.413C85.0996 177.533 87.4217 177.095 89.7615 177.123C96.9205 177.123 101.701 179.639 104.104 184.671L96.4936 188.006C95.1253 185.542 92.9497 184.31 89.9668 184.31C88.4234 184.31 87.2001 184.593 86.297 185.16C85.3939 185.727 84.9397 186.441 84.9342 187.304C84.9342 188.946 86.4749 190.17 89.5563 190.975L94.6586 192.207C98.0985 193.069 100.698 194.385 102.458 196.153C103.313 197.007 103.986 198.027 104.436 199.149C104.885 200.272 105.102 201.474 105.073 202.682C105.106 204.805 104.423 206.876 103.135 208.563C101.751 210.334 99.9225 211.707 97.8358 212.542C95.4758 213.517 92.9427 214.004 90.3896 213.971C86.1561 213.993 82.7367 213.142 80.1315 211.417Z" fill="black"/>
<path d="M121.496 213.203C120.168 212.752 118.959 212.005 117.962 211.019C115.83 208.941 114.764 205.983 114.764 202.145V185.85H108.714V178.232H114.764V168.438H123.672V178.232H132.169V185.85H123.672V200.605C123.672 202.42 124.056 203.724 124.825 204.518C125.46 205.265 126.548 205.639 128.089 205.639C128.818 205.661 129.545 205.545 130.231 205.298C130.996 204.969 131.734 204.582 132.44 204.14V212.846C130.47 213.622 128.371 214.015 126.254 214.004C124.633 214.022 123.022 213.75 121.496 213.203Z" fill="black"/>
<path d="M138.626 179.661L142.095 174.356C141.047 173.944 140.147 173.229 139.509 172.302C138.827 171.344 138.47 170.193 138.491 169.017C138.479 168.239 138.627 167.467 138.925 166.748C139.223 166.029 139.664 165.378 140.223 164.837C140.764 164.276 141.415 163.833 142.134 163.534C142.854 163.236 143.627 163.088 144.406 163.1C145.179 163.086 145.947 163.233 146.661 163.532C147.375 163.831 148.019 164.275 148.552 164.837C149.102 165.383 149.537 166.035 149.829 166.753C150.121 167.471 150.264 168.242 150.251 169.017C150.263 169.774 150.124 170.525 149.841 171.226C149.49 172.028 149.058 172.792 148.552 173.506L142.637 182.277L138.626 179.661Z" fill="black"/>
<path d="M157.049 204.822L165.714 196.174C170 191.886 172.753 189.086 173.973 187.772C175.276 186.446 176.407 184.962 177.339 183.353C177.966 182.11 178.282 180.733 178.259 179.341C178.27 178.584 178.118 177.834 177.813 177.141C177.507 176.449 177.056 175.831 176.489 175.329C175.31 174.234 173.746 173.686 171.798 173.686C169.896 173.686 168.355 174.234 167.175 175.329C165.985 176.436 165.117 177.845 164.663 179.407L156.638 176.076C157.197 174.195 158.135 172.449 159.393 170.943C160.807 169.227 162.583 167.844 164.593 166.894C166.889 165.817 169.402 165.281 171.937 165.329C174.739 165.267 177.513 165.886 180.024 167.132C182.231 168.239 184.089 169.934 185.393 172.031C186.666 174.105 187.326 176.497 187.298 178.93C187.298 183.965 184.851 188.885 179.958 193.689C177.963 195.641 174.269 199.314 168.875 204.707L169.08 205.118H187.909V212.92H157.049V204.822Z" fill="black"/>
<path d="M200.248 210.875C197.238 208.789 195.165 205.751 194.03 201.762L202.457 198.428C203.004 200.651 203.978 202.363 205.38 203.565C206.868 204.794 208.755 205.434 210.683 205.364C212.528 205.4 214.325 204.774 215.748 203.598C216.428 203.067 216.975 202.385 217.346 201.606C217.717 200.827 217.902 199.972 217.887 199.11C217.915 198.206 217.722 197.309 217.325 196.497C216.928 195.685 216.339 194.982 215.609 194.449C214.09 193.296 212.038 192.718 209.452 192.716H205.441V184.626H209.111C210.916 184.682 212.692 184.157 214.176 183.127C215.545 182.13 216.229 180.679 216.229 178.774C216.246 178.053 216.103 177.337 215.809 176.679C215.515 176.02 215.078 175.435 214.529 174.967C213.317 173.941 211.764 173.408 210.178 173.472C208.317 173.472 206.822 173.971 205.692 174.967C204.559 175.963 203.734 177.261 203.311 178.708L195.224 175.374C196.251 172.552 198.082 170.094 200.491 168.302C203.052 166.307 206.303 165.309 210.244 165.309C212.934 165.264 215.599 165.825 218.043 166.951C220.192 167.926 222.037 169.466 223.379 171.407C224.647 173.282 225.31 175.5 225.28 177.764C225.347 180.02 224.744 182.244 223.548 184.158C222.527 185.801 221.084 187.14 219.369 188.034V188.576C221.59 189.435 223.513 190.92 224.906 192.851C226.31 194.803 227.012 197.162 227.012 199.927C227.043 202.478 226.33 204.982 224.96 207.134C223.546 209.311 221.556 211.053 219.213 212.168C216.551 213.435 213.63 214.063 210.683 214.004C206.964 214.072 203.317 212.978 200.248 210.875Z" fill="black"/>
<path d="M159.557 80.3689V128.596C159.557 134.49 157.216 140.143 153.05 144.311C148.884 148.479 143.233 150.821 137.341 150.821C131.449 150.821 125.799 148.479 121.632 144.311C117.466 140.143 115.125 134.49 115.125 128.596V109.447C116.803 107.769 118.052 105.711 118.767 103.448C120.737 103.537 122.697 103.11 124.452 102.211C126.208 101.312 127.699 99.9701 128.778 98.3185C131.574 93.9533 131.147 87.5759 127.793 83.6747C129.348 81.7167 130.415 79.4167 130.906 76.9646C131.397 74.5126 131.298 71.9789 130.617 69.5728C129.222 64.7804 125.371 60.871 120.79 59.6062C121.714 56.1731 120.252 52.2144 118.438 49.2126C117.516 47.7229 116.29 46.4443 114.841 45.4601C113.392 44.4759 111.752 43.8082 110.027 43.5004C106.575 42.9254 104.432 43.2375 101.087 44.3217C99.0918 40.4985 95.2538 38.4206 91.153 37.9319C89.3684 37.7369 87.5641 38.0242 85.9281 38.7637C84.2922 39.5033 82.8844 40.6682 81.8513 42.137C81.397 42.0987 80.9414 42.074 80.4844 42.0631C79.0518 38.901 75.0865 37.1804 71.7287 37.9976C69.1754 38.6177 67.0245 40.3096 65.3251 42.4655C61.331 42.0302 57.2384 42.2972 53.54 43.8289C49.1518 45.644 46.2825 48.9785 44.7145 53.3643C44.7145 53.3643 39.8748 55.282 37.2887 61.6102C36.384 63.9445 36.0178 66.4529 36.2173 68.9486H58.7326C58.9408 68.9489 59.1435 68.8827 59.3114 68.7597L71.2689 59.7705C71.4358 59.6449 71.6389 59.5772 71.8477 59.5775H86.1368C86.2977 58.7511 86.7406 58.0064 87.3898 57.4708C88.0391 56.9352 88.8542 56.6419 89.6957 56.6413C90.1721 56.6413 90.6438 56.7352 91.0838 56.9177C91.5238 57.1002 91.9236 57.3677 92.2602 57.7048C92.5968 58.042 92.8637 58.4422 93.0456 58.8826C93.2275 59.323 93.3209 59.795 93.3203 60.2715C93.3203 61.2332 92.9385 62.1555 92.2587 62.8355C91.579 63.5155 90.657 63.8976 89.6957 63.8976C88.9505 63.8983 88.2231 63.6688 87.6133 63.2402C87.0034 62.8117 86.5408 62.2051 86.2887 61.5035H72.4922C72.2829 61.504 72.0796 61.5733 71.9134 61.7006L59.9559 70.6857C59.7884 70.8099 59.5856 70.8775 59.3771 70.8787H36.4226C36.6078 72.1066 36.8906 73.3177 37.2682 74.5006H77.9968C78.2236 74.5003 78.4432 74.5804 78.6167 74.7265L87.8403 82.4755C88.0131 82.6229 88.2331 82.7031 88.4602 82.7014H101.066C101.277 81.9362 101.733 81.2612 102.364 80.7799C102.995 80.2985 103.766 80.0373 104.56 80.0362C105.036 80.0362 105.508 80.1302 105.948 80.3127C106.388 80.4952 106.787 80.7626 107.124 81.0998C107.461 81.4369 107.727 81.8371 107.909 82.2775C108.091 82.7179 108.185 83.1899 108.184 83.6664C108.184 84.6281 107.802 85.5504 107.123 86.2305C106.443 86.9105 105.521 87.2925 104.56 87.2925C103.766 87.2914 102.995 87.0302 102.364 86.5489C101.733 86.0675 101.277 85.3926 101.066 84.6274H87.7541C87.5272 84.6283 87.3074 84.5482 87.1343 84.4015L77.9147 76.6524C77.7398 76.5093 77.5209 76.431 77.2949 76.4307H36.3856C35.3214 78.0734 34.5957 79.9121 34.2511 81.839H58.0225C58.1844 81.8368 58.3442 81.8752 58.4876 81.9505C58.631 82.0258 58.7533 82.1357 58.8434 82.2702L67.2503 95.0703C67.3389 95.2067 67.4607 95.3182 67.6043 95.3944C67.748 95.4706 67.9087 95.5088 68.0712 95.5056H93.5502C93.7599 94.7397 94.2154 94.0639 94.8466 93.5824C95.4778 93.1008 96.2497 92.8401 97.0435 92.8404C98.0052 92.8415 98.9271 93.2245 99.6067 93.9052C100.286 94.5858 100.668 95.5085 100.668 96.4706C100.667 97.432 100.285 98.3536 99.6053 99.0334C98.9258 99.7132 98.0045 100.096 97.0435 100.097C96.2497 100.097 95.4778 99.8363 94.8466 99.3548C94.2154 98.8732 93.7599 98.1975 93.5502 97.4316H66.9834C66.8233 97.4364 66.6645 97.4013 66.5212 97.3297C66.378 97.258 66.2547 97.1519 66.1625 97.0209L57.7598 84.2208C57.6704 84.0852 57.5483 83.9743 57.4049 83.8983C57.2614 83.8222 57.1011 83.7834 56.9388 83.7855H34.0294C33.9807 84.802 34.0412 85.8208 34.21 86.8243C34.58 88.9047 35.3952 90.8806 36.5996 92.6164C37.8041 94.3522 39.3694 95.8071 41.1883 96.8813C41.7964 97.1747 42.3449 97.5785 42.8057 98.0722C43.1983 98.6969 43.4581 99.3959 43.5692 100.125C44.0099 101.899 44.8164 103.561 45.9368 105.004C47.0573 106.447 48.467 107.641 50.0754 108.507C51.7774 109.395 53.6647 109.869 55.5842 109.891C57.2261 109.915 58.8681 109.127 60.313 110.018C61.7579 110.909 62.5994 112.737 64.11 113.689C65.7736 114.722 67.6424 115.379 69.5859 115.615C73.3624 116.1 77.1841 115.229 80.7964 114.022C84.2445 116.683 88.924 117.447 93.1438 116.437C96.0056 118.941 98.2364 122.086 99.655 125.615C101.074 129.144 101.64 132.958 101.308 136.748C100.266 147.585 91.7153 156.586 80.5665 158.29C72.4593 158.726 55.3091 158.492 38.0276 148.435C13.1438 133.984 -0.172454 106.105 0.00816097 79.2765C0.00816097 76.7017 1.08362 32.9014 38.828 10.648C67.0203 -5.97113 100.927 -1.86867 124.435 14.1099C146.076 28.8195 154.241 50.424 157.118 61.1872C157.939 64.2179 158.317 66.3902 158.473 67.3101C159.197 71.6252 159.56 75.9934 159.557 80.3689Z" fill="black"/>
</g>
</mask>
<g mask="url(#mask0_237_141)">
<ellipse cx="120.526" cy="118.889" rx="143.226" ry="143.207" fill="url(#paint0_linear_237_141)"/>
</g>
<defs>
<linearGradient id="paint0_linear_237_141" x1="208.31" y1="-3.06805" x2="6.90111" y2="239.025" gradientUnits="userSpaceOnUse">
<stop stop-color="#293B8F"/>
<stop offset="0.990323"/>
</linearGradient>
<clipPath id="clip0_237_141">
<rect width="227" height="214" fill="white"/>
</clipPath>
</defs>
</svg>
