<svg width="73" height="36" viewBox="0 0 73 36" fill="none" xmlns="http://www.w3.org/2000/svg">
<path d="M17.3471 18L29.1094 11.0489C29.7672 10.6598 30.3437 10.142 30.806 9.52488C31.2683 8.90779 31.6073 8.20357 31.8036 7.45242C31.9999 6.70128 32.0497 5.91793 31.9501 5.14709C31.8506 4.37625 31.6036 3.63303 31.2233 2.95986C30.8436 2.28616 30.3377 1.69571 29.7348 1.22228C29.1318 0.748858 28.4435 0.401749 27.7093 0.200823C26.975 -0.000102448 26.2093 -0.0509016 25.4559 0.0513311C24.7024 0.153564 23.9761 0.406825 23.3184 0.796617L3 12.8021L17.3471 18Z" fill="#EA4335"/>
<path d="M26.1947 36C27.2133 36 28.2139 35.725 29.0961 35.2024C29.9783 34.6799 30.7111 33.9284 31.2208 33.0232C31.6023 32.3457 31.8501 31.5977 31.95 30.822C32.0498 30.0462 31.9999 29.2578 31.8029 28.5018C31.606 27.7459 31.2659 27.0371 30.8021 26.4161C30.3383 25.795 29.7598 25.2738 29.0998 24.8823L8.70908 12.7998C8.04905 12.4082 7.32032 12.1539 6.56454 12.0514C5.80875 11.9488 5.0407 12.0001 4.30422 12.2023C3.56774 12.4045 2.87727 12.7535 2.27223 13.2296C1.66719 13.7057 1.15943 14.2994 0.777943 14.9769C0.396636 15.6547 0.149167 16.403 0.0496495 17.179C-0.0498678 17.955 0.000541497 18.7435 0.197971 19.4995C0.3954 20.2555 0.735993 20.9641 1.2003 21.585C1.6646 22.2059 2.24352 22.7267 2.90399 23.1179L23.2897 35.2055C24.1729 35.7285 25.1751 36.0026 26.1947 36Z" fill="#4285F4"/>
<path d="M46.9898 36C48.0394 36.0017 49.0709 35.7309 49.98 35.2152L71 23.2746L56.3493 18L43.9943 25.0175C43.3133 25.4039 42.7164 25.9185 42.2376 26.5318C41.7589 27.1451 41.4077 27.8451 41.2041 28.5919C41.0006 29.3387 40.9486 30.1176 41.0512 30.8842C41.1538 31.6507 41.409 32.3899 41.8022 33.0594C42.3282 33.9543 43.0845 34.6972 43.9952 35.2134C44.9058 35.7296 45.9387 36.0009 46.9898 36Z" fill="#FBBC04"/>
<path d="M67.1958 24C68.2143 24 69.215 23.725 70.0972 23.2025C70.9795 22.68 71.7123 21.9284 72.222 21.0232C72.6033 20.3454 72.8508 19.5972 72.9503 18.8212C73.0499 18.0452 72.9995 17.2567 72.802 16.5007C72.6046 15.7447 72.264 15.036 71.7997 14.4152C71.3354 13.7943 70.7564 13.2734 70.0959 12.8823L49.7094 0.799825C49.0494 0.408216 48.3206 0.153892 47.5648 0.0513653C46.809 -0.0511616 46.0409 0.000123601 45.3044 0.202288C44.5679 0.404453 43.8774 0.753531 43.2723 1.22961C42.6673 1.70569 42.1595 2.29943 41.778 2.97694C41.3967 3.65473 41.1492 4.403 41.0497 5.17899C40.9501 5.95498 41.0005 6.7435 41.198 7.4995C41.3954 8.2555 41.736 8.96416 42.2003 9.58501C42.6646 10.2059 43.2436 10.7267 43.9041 11.1179L64.2906 23.2004C65.1734 23.7249 66.1756 24.0008 67.1958 24Z" fill="#34A853"/>
</svg>
